{
  "accessors": [
    {
      "bufferView": 1,
      "componentType": 5126,
      "count": 12862,
      "max": [
        72.0,
        -0.14869999885559082,
        19.27519989013672
      ],
      "min": [
        53.8849983215332,
        -8.226099967956543,
        -22.303300857543945
      ],
      "type": "VEC3"
    },
    {
      "bufferView": 1,
      "byteOffset": 154344,
      "componentType": 5126,
      "count": 12862,
      "max": [
        1.0,
        1.0,
        1.0
      ],
      "min": [
        -1.0,
        -1.0,
        -1.0
      ],
      "type": "VEC3"
    },
    {
      "bufferView": 0,
      "componentType": 5125,
      "count": 47832,
      "type": "SCALAR"
    },
    {
      "bufferView": 1,
      "byteOffset": 308688,
      "componentType": 5126,
      "count": 6754,
      "max": [
        71.81400299072266,
        -0.028999999165534973,
        8.866000175476074
      ],
      "min": [
        -33.0,
        -8.538000106811523,
        -22.05299949645996
      ],
      "type": "VEC3"
    },
    {
      "bufferView": 1,
      "byteOffset": 389736,
      "componentType": 5126,
      "count": 6754,
      "max": [
        1.0,
        1.0,
        1.0
      ],
      "min": [
        -1.0,
        -1.0,
        -1.0
      ],
      "type": "VEC3"
    },
    {
      "bufferView": 0,
      "byteOffset": 191328,
      "componentType": 5125,
      "count": 27705,
      "type": "SCALAR"
    },
    {
      "bufferView": 1,
      "byteOffset": 470784,
      "componentType": 5126,
      "count": 1554,
      "max": [
        67.53299713134766,
        -0.6826000213623047,
        16.16200065612793
      ],
      "min": [
        66.4800033569336,
        -4.834000110626221,
        1.010599970817566
      ],
      "type": "VEC3"
    },
    {
      "bufferView": 1,
      "byteOffset": 489432,
      "componentType": 5126,
      "count": 1554,
      "max": [
        0.9239956140518188,
        0.9999986290931702,
        0.9999958276748657
      ],
      "min": [
        -0.928414523601532,
        -0.9999385476112366,
        -0.9999725222587585
      ],
      "type": "VEC3"
    },
    {
      "bufferView": 0,
      "byteOffset": 302148,
      "componentType": 5125,
      "count": 4608,
      "type": "SCALAR"
    },
    {
      "bufferView": 1,
      "byteOffset": 508080,
      "componentType": 5126,
      "count": 8401,
      "max": [
        67.96900177001953,
        -0.24629999697208405,
        19.65410041809082
      ],
      "min": [
        53.760799407958984,
        -8.640999794006348,
        0.5683000087738037
      ],
      "type": "VEC3"
    },
    {
      "bufferView": 1,
      "byteOffset": 608892,
      "componentType": 5126,
      "count": 8401,
      "max": [
        0.8931484222412109,
        0.9999687671661377,
        1.0
      ],
      "min": [
        -1.0,
        -1.0,
        -1.0
      ],
      "type": "VEC3"
    },
    {
      "bufferView": 0,
      "byteOffset": 320580,
      "componentType": 5125,
      "count": 27750,
      "type": "SCALAR"
    },
    {
      "bufferView": 1,
      "byteOffset": 709704,
      "componentType": 5126,
      "count": 6742,
      "max": [
        71.81400299072266,
        -0.028999999165534973,
        19.865999221801758
      ],
      "min": [
        -33.0,
        -8.538000106811523,
        -12.053000450134277
      ],
      "type": "VEC3"
    },
    {
      "bufferView": 1,
      "byteOffset": 790608,
      "componentType": 5126,
      "count": 6742,
      "max": [
        1.0,
        1.0,
        1.0
      ],
      "min": [
        -1.0,
        -1.0,
        -1.0
      ],
      "type": "VEC3"
    },
    {
      "bufferView": 0,
      "byteOffset": 431580,
      "componentType": 5125,
      "count": 27660,
      "type": "SCALAR"
    },
    {
      "bufferView": 1,
      "byteOffset": 871512,
      "componentType": 5126,
      "count": 23378,
      "max": [
        72.0,
        -0.0,
        19.46500015258789
      ],
      "min": [
        49.111000061035156,
        -8.13700008392334,
        -22.45199966430664
      ],
      "type": "VEC3"
    },
    {
      "bufferView": 1,
      "byteOffset": 1152048,
      "componentType": 5126,
      "count": 23378,
      "max": [
        1.0,
        1.0,
        1.0
      ],
      "min": [
        -1.0,
        -1.0,
        -1.0
      ],
      "type": "VEC3"
    },
    {
      "bufferView": 0,
      "byteOffset": 542220,
      "componentType": 5125,
      "count": 70605,
      "type": "SCALAR"
    }
  ],
  "asset": {
    "extras": {
      "author": "Rowan Design (https://sketchfab.com/rowansreid)",
      "license": "CC-BY-4.0 (http://creativecommons.org/licenses/by/4.0/)",
      "source": "https://sketchfab.com/3d-models/beat-saber-ideas-d2a0c0f248564ce086db6bd016a190a3",
      "title": "Beat Saber Ideas"
    },
    "generator": "Sketchfab-12.66.0",
    "version": "2.0"
  },
  "bufferViews": [
    {
      "buffer": 0,
      "byteLength": 824640,
      "name": "floatBufferViews",
      "target": 34963
    },
    {
      "buffer": 0,
      "byteLength": 1432584,
      "byteOffset": 824640,
      "byteStride": 12,
      "name": "floatBufferViews",
      "target": 34962
    }
  ],
  "buffers": [
    {
      "byteLength": 2257224,
      "uri": "scene.bin"
    }
  ],
  "materials": [
    {
      "doubleSided": true,
      "name": "color_10988977",
      "pbrMetallicRoughness": {
        "baseColorFactor": [
          0.1119324278369056,
          0.1119324278369056,
          0.1119324278369056,
          1.0
        ],
        "roughnessFactor": 0.717797256097561
      }
    },
    {
      "doubleSided": true,
      "emissiveFactor": [
        1.0,
        0.0,
        0.0
      ],
      "name": "color_15277357",
      "pbrMetallicRoughness": {
        "baseColorFactor": [
          0.0,
          0.0,
          0.0,
          1.0
        ],
        "metallicFactor": 0.0
      }
    },
    {
      "doubleSided": true,
      "name": "color_16089887",
      "pbrMetallicRoughness": {
        "baseColorFactor": [
          0.960784,
          0.513726,
          0.121569,
          1.0
        ],
        "metallicFactor": 0.0
      }
    },
    {
      "doubleSided": true,
      "name": "color_2829873",
      "pbrMetallicRoughness": {
        "baseColorFactor": [
          0.11106511231140416,
          0.11106511231140416,
          0.11106511231140416,
          1.0
        ],
        "roughnessFactor": 0.7848704268292683
      }
    },
    {
      "doubleSided": true,
      "emissiveFactor": [
        0.0,
        1.0,
        1.0
      ],
      "name": "color_40919",
      "pbrMetallicRoughness": {
        "baseColorFactor": [
          0.0,
          0.0,
          0.0,
          1.0
        ],
        "metallicFactor": 0.0
      }
    },
    {
      "doubleSided": true,
      "name": "color_6383466",
      "pbrMetallicRoughness": {
        "baseColorFactor": [
          0.1119324278369056,
          0.1119324278369056,
          0.1119324278369056,
          1.0
        ],
        "roughnessFactor": 0.8031631097560976
      }
    }
  ],
  "meshes": [
    {
      "name": "Object_0",
      "primitives": [
        {
          "attributes": {
            "NORMAL": 1,
            "POSITION": 0
          },
          "indices": 2,
          "material": 0,
          "mode": 4
        }
      ]
    },
    {
      "name": "Object_1",
      "primitives": [
        {
          "attributes": {
            "NORMAL": 4,
            "POSITION": 3
          },
          "indices": 5,
          "material": 1,
          "mode": 4
        }
      ]
    },
    {
      "name": "Object_2",
      "primitives": [
        {
          "attributes": {
            "NORMAL": 7,
            "POSITION": 6
          },
          "indices": 8,
          "material": 2,
          "mode": 4
        }
      ]
    },
    {
      "name": "Object_3",
      "primitives": [
        {
          "attributes": {
            "NORMAL": 10,
            "POSITION": 9
          },
          "indices": 11,
          "material": 3,
          "mode": 4
        }
      ]
    },
    {
      "name": "Object_4",
      "primitives": [
        {
          "attributes": {
            "NORMAL": 13,
            "POSITION": 12
          },
          "indices": 14,
          "material": 4,
          "mode": 4
        }
      ]
    },
    {
      "name": "Object_5",
      "primitives": [
        {
          "attributes": {
            "NORMAL": 16,
            "POSITION": 15
          },
          "indices": 17,
          "material": 5,
          "mode": 4
        }
      ]
    }
  ],
  "nodes": [
    {
      "children": [
        1
      ],
      "matrix": [
        0.014057706110179424,
        0.0,
        0.0,
        0.0,
        0.0,
        -0.014057706110179424,
        -3.121437799386989e-18,
        0.0,
        0.0,
        3.121437799386989e-18,
        -0.014057706110179424,
        0.0,
        0.0,
        -5.613488197326661,
        3.027508735656737,
        1.0
      ],
      "name": "Sketchfab_model"
    },
    {
      "children": [
        2,
        3,
        4,
        5,
        6,
        7
      ],
      "name": "tinker.obj.cleaner.materialmerger.gles"
    },
    {
      "mesh": 0,
      "name": "Object_2"
    },
    {
      "mesh": 1,
      "name": "Object_3"
    },
    {
      "mesh": 2,
      "name": "Object_4"
    },
    {
      "mesh": 3,
      "name": "Object_5"
    },
    {
      "mesh": 4,
      "name": "Object_6"
    },
    {
      "mesh": 5,
      "name": "Object_7"
    }
  ],
  "scene": 0,
  "scenes": [
    {
      "name": "Sketchfab_Scene",
      "nodes": [
        0
      ]
    }
  ]
}
