{
  "accessors": [
    {
      "bufferView": 2,
      "componentType": 5126,
      "count": 16063,
      "max": [
        -33.22496032714844,
        8.299522399902344,
        22.98369789123535
      ],
      "min": [
        -36.28755187988281,
        5.45501184463501,
        0.5163940787315369
      ],
      "type": "VEC3"
    },
    {
      "bufferView": 2,
      "byteOffset": 192756,
      "componentType": 5126,
      "count": 16063,
      "max": [
        1.0,
        1.0,
        0.9981127381324768
      ],
      "min": [
        -0.9999978542327881,
        -1.0,
        -0.9998104572296143
      ],
      "type": "VEC3"
    },
    {
      "bufferView": 1,
      "componentType": 5126,
      "count": 16063,
      "max": [
        0.6259047389030457,
        0.7622115015983582
      ],
      "min": [
        0.5590715408325195,
        0.0004386366344988346
      ],
      "type": "VEC2"
    },
    {
      "bufferView": 0,
      "componentType": 5125,
      "count": 78528,
      "type": "SCALAR"
    },
    {
      "bufferView": 2,
      "byteOffset": 385512,
      "componentType": 5126,
      "count": 3502,
      "max": [
        -33.31475830078125,
        8.370240211486816,
        17.485998153686523
      ],
      "min": [
        -36.365806579589844,
        5.384295463562012,
        1.6194757223129272
      ],
      "type": "VEC3"
    },
    {
      "bufferView": 2,
      "byteOffset": 427536,
      "componentType": 5126,
      "count": 3502,
      "max": [
        0.9999885559082031,
        1.0,
        0.9165107607841492
      ],
      "min": [
        -0.9999771118164063,
        -1.0,
        -0.8223240971565247
      ],
      "type": "VEC3"
    },
    {
      "bufferView": 1,
      "byteOffset": 128504,
      "componentType": 5126,
      "count": 3502,
      "max": [
        0.6251965761184692,
        0.6684518456459045
      ],
      "min": [
        0.5590036511421204,
        0.08536151051521301
      ],
      "type": "VEC2"
    },
    {
      "bufferView": 0,
      "byteOffset": 314112,
      "componentType": 5125,
      "count": 16896,
      "type": "SCALAR"
    },
    {
      "bufferView": 2,
      "byteOffset": 469560,
      "componentType": 5126,
      "count": 1205,
      "max": [
        -33.40193176269531,
        7.8947553634643555,
        98.80756378173828
      ],
      "min": [
        -35.37663650512695,
        5.859777927398682,
        21.599315643310547
      ],
      "type": "VEC3"
    },
    {
      "bufferView": 2,
      "byteOffset": 484020,
      "componentType": 5126,
      "count": 1205,
      "max": [
        0.9960087537765503,
        1.0,
        0.9998071193695068
      ],
      "min": [
        -0.9965458512306213,
        -0.9999996423721313,
        -0.019318699836730957
      ],
      "type": "VEC3"
    },
    {
      "bufferView": 1,
      "byteOffset": 156520,
      "componentType": 5126,
      "count": 1205,
      "max": [
        0.8828229904174805,
        0.9995613694190979
      ],
      "min": [
        0.547292172908783,
        0.0004386366344988346
      ],
      "type": "VEC2"
    },
    {
      "bufferView": 0,
      "byteOffset": 381696,
      "componentType": 5125,
      "count": 5568,
      "type": "SCALAR"
    },
    {
      "bufferView": 2,
      "byteOffset": 498480,
      "componentType": 5126,
      "count": 680,
      "max": [
        -33.27182388305664,
        8.148733139038086,
        18.720754623413086
      ],
      "min": [
        -35.822025299072266,
        5.605802059173584,
        11.557402610778809
      ],
      "type": "VEC3"
    },
    {
      "bufferView": 2,
      "byteOffset": 506640,
      "componentType": 5126,
      "count": 680,
      "max": [
        0.9998116493225098,
        1.0,
        0.01953229308128357
      ],
      "min": [
        -0.9998116493225098,
        -1.0,
        -0.019501786679029465
      ],
      "type": "VEC3"
    },
    {
      "bufferView": 1,
      "byteOffset": 166160,
      "componentType": 5126,
      "count": 680,
      "max": [
        0.6259002685546875,
        0.6906982064247131
      ],
      "min": [
        0.559978723526001,
        0.06516698747873306
      ],
      "type": "VEC2"
    },
    {
      "bufferView": 0,
      "byteOffset": 403968,
      "componentType": 5125,
      "count": 3072,
      "type": "SCALAR"
    },
    {
      "bufferView": 2,
      "byteOffset": 514800,
      "componentType": 5126,
      "count": 2820,
      "max": [
        -33.2781867980957,
        8.471619606018066,
        10.048625946044922
      ],
      "min": [
        -36.33102035522461,
        5.341961860656738,
        3.6104395389556885
      ],
      "type": "VEC3"
    },
    {
      "bufferView": 2,
      "byteOffset": 548640,
      "componentType": 5126,
      "count": 2820,
      "max": [
        0.9999699592590332,
        0.9999997615814209,
        0.9998307228088379
      ],
      "min": [
        -0.9999699592590332,
        -0.9999970197677612,
        -0.9998307228088379
      ],
      "type": "VEC3"
    },
    {
      "bufferView": 1,
      "byteOffset": 171600,
      "componentType": 5126,
      "count": 2820,
      "max": [
        0.9952133893966675,
        0.9534441828727722
      ],
      "min": [
        0.4497624933719635,
        0.2935776710510254
      ],
      "type": "VEC2"
    },
    {
      "bufferView": 0,
      "byteOffset": 416256,
      "componentType": 5125,
      "count": 14592,
      "type": "SCALAR"
    },
    {
      "bufferView": 2,
      "byteOffset": 582480,
      "componentType": 5126,
      "count": 2307,
      "max": [
        -34.27427291870117,
        8.753567695617676,
        16.38523292541504
      ],
      "min": [
        -34.94993209838867,
        8.01484489440918,
        14.585411071777344
      ],
      "type": "VEC3"
    },
    {
      "bufferView": 2,
      "byteOffset": 610164,
      "componentType": 5126,
      "count": 2307,
      "max": [
        1.0,
        1.0,
        1.0
      ],
      "min": [
        -1.0,
        -1.0,
        -1.0
      ],
      "type": "VEC3"
    },
    {
      "bufferView": 1,
      "byteOffset": 194160,
      "componentType": 5126,
      "count": 2307,
      "max": [
        0.9339534640312195,
        0.9285725951194763
      ],
      "min": [
        0.0004386366344988346,
        0.0004386361688375473
      ],
      "type": "VEC2"
    },
    {
      "bufferView": 0,
      "byteOffset": 474624,
      "componentType": 5125,
      "count": 11904,
      "type": "SCALAR"
    },
    {
      "bufferView": 2,
      "byteOffset": 637848,
      "componentType": 5126,
      "count": 1100,
      "max": [
        -32.95685958862305,
        8.307245254516602,
        18.699844360351563
      ],
      "min": [
        -34.98467254638672,
        6.645233154296875,
        15.662034034729004
      ],
      "type": "VEC3"
    },
    {
      "bufferView": 2,
      "byteOffset": 651048,
      "componentType": 5126,
      "count": 1100,
      "max": [
        1.0,
        0.9998301267623901,
        1.0
      ],
      "min": [
        -1.0,
        -0.9998301267623901,
        -1.0
      ],
      "type": "VEC3"
    },
    {
      "bufferView": 1,
      "byteOffset": 212616,
      "componentType": 5126,
      "count": 1100,
      "max": [
        0.8021343946456909,
        0.8192025423049927
      ],
      "min": [
        0.0012070012744516134,
        0.0004386366344988346
      ],
      "type": "VEC2"
    },
    {
      "bufferView": 0,
      "byteOffset": 522240,
      "componentType": 5125,
      "count": 5880,
      "type": "SCALAR"
    }
  ],
  "asset": {
    "extras": {
      "author": "Javier Martín Hidalgo (https://sketchfab.com/Jj.Mmhh)",
      "license": "CC-BY-4.0 (http://creativecommons.org/licenses/by/4.0/)",
      "source": "https://sketchfab.com/3d-models/laser-saber-sith-52791ba8eb284a8b9b36c6ca52ae201b",
      "title": "Laser Saber sith"
    },
    "generator": "Sketchfab-12.65.0",
    "version": "2.0"
  },
  "bufferViews": [
    {
      "buffer": 0,
      "byteLength": 545760,
      "name": "floatBufferViews",
      "target": 34963
    },
    {
      "buffer": 0,
      "byteLength": 221416,
      "byteOffset": 545760,
      "byteStride": 8,
      "name": "floatBufferViews",
      "target": 34962
    },
    {
      "buffer": 0,
      "byteLength": 664248,
      "byteOffset": 767176,
      "byteStride": 12,
      "name": "floatBufferViews",
      "target": 34962
    }
  ],
  "buffers": [
    {
      "byteLength": 1431424,
      "uri": "scene.bin"
    }
  ],
  "images": [
    {
      "uri": "textures/negro_baseColor.png"
    },
    {
      "uri": "textures/negro_metallicRoughness.png"
    },
    {
      "uri": "textures/plateado_baseColor.png"
    },
    {
      "uri": "textures/plateado_metallicRoughness.png"
    },
    {
      "uri": "textures/material_baseColor.png"
    },
    {
      "uri": "textures/material_metallicRoughness.png"
    },
    {
      "uri": "textures/material_emissive.png"
    },
    {
      "uri": "textures/emision_baseColor.png"
    },
    {
      "uri": "textures/emision_metallicRoughness.png"
    },
    {
      "uri": "textures/emision_emissive.png"
    },
    {
      "uri": "textures/detalles_mango_baseColor.png"
    },
    {
      "uri": "textures/detalles_mango_metallicRoughness.png"
    },
    {
      "uri": "textures/cuadrado_baseColor.png"
    },
    {
      "uri": "textures/cuadrado_metallicRoughness.png"
    },
    {
      "uri": "textures/botones_baseColor.png"
    },
    {
      "uri": "textures/botones_metallicRoughness.png"
    }
  ],
  "materials": [
    {
      "doubleSided": true,
      "name": "negro",
      "pbrMetallicRoughness": {
        "baseColorTexture": {
          "index": 0
        },
        "metallicRoughnessTexture": {
          "index": 1
        },
        "roughnessFactor": 0.1760582743
      }
    },
    {
      "doubleSided": true,
      "name": "plateado",
      "pbrMetallicRoughness": {
        "baseColorTexture": {
          "index": 2
        },
        "metallicRoughnessTexture": {
          "index": 3
        },
        "roughnessFactor": 0.1760582743
      }
    },
    {
      "doubleSided": true,
      "emissiveFactor": [
        1.0,
        1.0,
        1.0
      ],
      "emissiveTexture": {
        "index": 6
      },
      "name": "material",
      "pbrMetallicRoughness": {
        "baseColorTexture": {
          "index": 4
        },
        "metallicRoughnessTexture": {
          "index": 5
        },
        "roughnessFactor": 0.8239417257
      }
    },
    {
      "doubleSided": true,
      "emissiveFactor": [
        1.0,
        1.0,
        1.0
      ],
      "emissiveTexture": {
        "index": 9
      },
      "name": "emision",
      "pbrMetallicRoughness": {
        "baseColorTexture": {
          "index": 7
        },
        "metallicRoughnessTexture": {
          "index": 8
        },
        "roughnessFactor": 0.1760582743
      }
    },
    {
      "doubleSided": true,
      "name": "detalles_mango",
      "pbrMetallicRoughness": {
        "baseColorTexture": {
          "index": 10
        },
        "metallicRoughnessTexture": {
          "index": 11
        },
        "roughnessFactor": 0.1760582743
      }
    },
    {
      "doubleSided": true,
      "name": "cuadrado",
      "pbrMetallicRoughness": {
        "baseColorTexture": {
          "index": 12
        },
        "metallicRoughnessTexture": {
          "index": 13
        },
        "roughnessFactor": 0.1760582743
      }
    },
    {
      "doubleSided": true,
      "name": "botones",
      "pbrMetallicRoughness": {
        "baseColorTexture": {
          "index": 14
        },
        "metallicRoughnessTexture": {
          "index": 15
        },
        "roughnessFactor": 0.1760582743
      }
    }
  ],
  "meshes": [
    {
      "name": "sable laser_negro_0",
      "primitives": [
        {
          "attributes": {
            "NORMAL": 1,
            "POSITION": 0,
            "TEXCOORD_0": 2
          },
          "indices": 3,
          "material": 0,
          "mode": 4
        }
      ]
    },
    {
      "name": "sable laser_plateado_0",
      "primitives": [
        {
          "attributes": {
            "NORMAL": 5,
            "POSITION": 4,
            "TEXCOORD_0": 6
          },
          "indices": 7,
          "material": 1,
          "mode": 4
        }
      ]
    },
    {
      "name": "sable laser_luz_0",
      "primitives": [
        {
          "attributes": {
            "NORMAL": 9,
            "POSITION": 8,
            "TEXCOORD_0": 10
          },
          "indices": 11,
          "material": 2,
          "mode": 4
        }
      ]
    },
    {
      "name": "sable laser_emision_0",
      "primitives": [
        {
          "attributes": {
            "NORMAL": 13,
            "POSITION": 12,
            "TEXCOORD_0": 14
          },
          "indices": 15,
          "material": 3,
          "mode": 4
        }
      ]
    },
    {
      "name": "sable laser_detalles mango_0",
      "primitives": [
        {
          "attributes": {
            "NORMAL": 17,
            "POSITION": 16,
            "TEXCOORD_0": 18
          },
          "indices": 19,
          "material": 4,
          "mode": 4
        }
      ]
    },
    {
      "name": "sable laser_cuadrado_0",
      "primitives": [
        {
          "attributes": {
            "NORMAL": 21,
            "POSITION": 20,
            "TEXCOORD_0": 22
          },
          "indices": 23,
          "material": 5,
          "mode": 4
        }
      ]
    },
    {
      "name": "sable laser_botones_0",
      "primitives": [
        {
          "attributes": {
            "NORMAL": 25,
            "POSITION": 24,
            "TEXCOORD_0": 26
          },
          "indices": 27,
          "material": 6,
          "mode": 4
        }
      ]
    }
  ],
  "nodes": [
    {
      "children": [
        1
      ],
      "matrix": [
        1.0,
        0.0,
        0.0,
        0.0,
        0.0,
        2.220446049250313e-16,
        -1.0,
        0.0,
        0.0,
        1.0,
        2.220446049250313e-16,
        0.0,
        0.0,
        0.0,
        0.0,
        1.0
      ],
      "name": "Sketchfab_model"
    },
    {
      "children": [
        2
      ],
      "matrix": [
        1.0,
        0.0,
        0.0,
        0.0,
        0.0,
        0.0,
        1.0,
        0.0,
        0.0,
        -1.0,
        0.0,
        0.0,
        0.0,
        0.0,
        0.0,
        1.0
      ],
      "name": "1a3e8ed785d04faea8e656a3f1fc33e5.fbx"
    },
    {
      "children": [
        3
      ],
      "name": "RootNode"
    },
    {
      "children": [
        4,
        5,
        6,
        7,
        8,
        9,
        10
      ],
      "matrix": [
        1.0,
        0.0,
        0.0,
        0.0,
        0.0,
        1.0,
        0.0,
        0.0,
        0.0,
        0.0,
        1.0,
        0.0,
        0.07718801498413086,
        85.33647918701172,
        13.11601734161377,
        1.0
      ],
      "name": "sable laser"
    },
    {
      "mesh": 0,
      "name": "sable laser_negro_0"
    },
    {
      "mesh": 1,
      "name": "sable laser_plateado_0"
    },
    {
      "mesh": 2,
      "name": "sable laser_luz_0"
    },
    {
      "mesh": 3,
      "name": "sable laser_emision_0"
    },
    {
      "mesh": 4,
      "name": "sable laser_detalles mango_0"
    },
    {
      "mesh": 5,
      "name": "sable laser_cuadrado_0"
    },
    {
      "mesh": 6,
      "name": "sable laser_botones_0"
    }
  ],
  "samplers": [
    {
      "magFilter": 9729,
      "minFilter": 9987,
      "wrapS": 10497,
      "wrapT": 10497
    }
  ],
  "scene": 0,
  "scenes": [
    {
      "name": "Sketchfab_Scene",
      "nodes": [
        0
      ]
    }
  ],
  "textures": [
    {
      "sampler": 0,
      "source": 0
    },
    {
      "sampler": 0,
      "source": 1
    },
    {
      "sampler": 0,
      "source": 2
    },
    {
      "sampler": 0,
      "source": 3
    },
    {
      "sampler": 0,
      "source": 4
    },
    {
      "sampler": 0,
      "source": 5
    },
    {
      "sampler": 0,
      "source": 6
    },
    {
      "sampler": 0,
      "source": 7
    },
    {
      "sampler": 0,
      "source": 8
    },
    {
      "sampler": 0,
      "source": 9
    },
    {
      "sampler": 0,
      "source": 10
    },
    {
      "sampler": 0,
      "source": 11
    },
    {
      "sampler": 0,
      "source": 12
    },
    {
      "sampler": 0,
      "source": 13
    },
    {
      "sampler": 0,
      "source": 14
    },
    {
      "sampler": 0,
      "source": 15
    }
  ]
}
